<?xml version="1.0" encoding="UTF-8" standalone="no"?>
<svg
   xmlns:dc="http://purl.org/dc/elements/1.1/"
   xmlns:cc="http://creativecommons.org/ns#"
   xmlns:rdf="http://www.w3.org/1999/02/22-rdf-syntax-ns#"
   xmlns:svg="http://www.w3.org/2000/svg"
   xmlns:xlink="http://www.w3.org/1999/xlink"
   xmlns="http://www.w3.org/2000/svg"
   id="turtle"
   version="1.1"
   viewBox="0 0 670 536">
  <defs
     id="defs4215" />
  <metadata
     id="metadata4209">
    <rdf:RDF>
      <cc:Work
         rdf:about="">
        <dc:format>image/svg+xml</dc:format>
        <dc:type
           rdf:resource="http://purl.org/dc/dcmitype/StillImage" />
        <dc:title></dc:title>
      </cc:Work>
    </rdf:RDF>
  </metadata>
  <path fill="#777"
     d="m 486.03928,344.559 c 8.8313,-13.669 19.106,-39.217 15.772,-39.217 -0.29727,0 -1.7598,0.8788 -3.25,1.9528 -1.4902,1.0741 -3.9485,2.2482 -5.4628,2.6093 l -2.7533,0.6564 2.8958,-5.8593 c 3.8834,-7.8575 6.7351,-17.423 8.2049,-27.521 1.2662,-8.6995 1.6612,-40.416 0.51757,-41.56 -0.36172,-0.36171 -1.3324,0.30557 -2.157,1.4828 -2.4144,3.447 -4.4924,5.2388 -6.0758,5.2388 -1.2319,0 -1.345,-1.0414 -0.67857,-6.25 1.8532,-14.484 0.10227,-30.251 -5.6339,-50.732 -1.6147,-5.7651 -2.7355,-10.682 -2.4908,-10.927 1.2439,-1.2439 11.546,17.215 14.425,25.847 1.181,3.5409 2.4044,9.5034 2.7185,13.25 0.3141,3.7466 0.94825,6.8121 1.4092,6.8121 0.46097,0 2.056,-2.3625 3.5446,-5.25 l 2.7065,-5.25 1.2742,7 c 3.3406,18.352 2.6408,48.11 -1.5162,64.48 -2.1008,8.2725 -1.3042,8.824 4.3628,3.0205 2.1482,-2.2 4.2055,-4 4.5717,-4 0.90907,0 -1.2778,9.097 -4.6083,19.17 -3.9386,11.912 -9.4932,23.552 -15.781,33.072 -5.6595,8.5681 -14.124,18.63 -14.94,17.758 -0.25731,-0.275 1.0682,-2.8775 2.9456,-5.7834 z m -50.782,-50.217 c 0.53689,0 1.2596,0.4586 1.606,1.019 1.0902,1.764 10.273,5.9672 16.549,7.5751 9.9705,2.5543 14.939,0.3264 14.939,-6.6988 0,-5.5847 -3.8423,-12.51 -10.361,-18.676 -5.0877,-4.8117 -15.949,-11.071 -19.639,-11.318 -3.0585,-0.2049 3.6618,-1.7053 8.0685,-1.8014 10.798,-0.2356 21.235,5.8569 25.152,14.682 1.0453,2.3549 2.7773,8.8047 3.849,14.333 1.0717,5.5282 2.4308,10.953 3.0203,12.054 0.5895,1.1015 0.86365,2.2109 0.60921,2.4653 -0.25443,0.2544 -3.592,0.725 -7.4167,1.0456 -12.395,1.0392 -26.447,-2.6151 -32.619,-8.4831 -3.3602,-3.1948 -5.1807,-6.1964 -3.7581,-6.1964 z m -3.724,-41.162 c 1.2752,-4.7887 6.982,-11.371 12.14,-14.002 3.6293,-1.8515 6.0551,-2.1172 20.871,-2.2856 l 16.765,-0.19055 -0.42148,8.2968 c -0.66972,13.184 -5.0437,20.295 -13.526,21.991 -3.1273,0.6255 -3.1046,0.5775 2.268,-4.7951 6.5965,-6.5964 8.6921,-11.724 6.2897,-15.391 -4.0718,-6.2143 -24.216,-0.8138 -38.817,10.406 l -6.75,5.1872 0.10335,-2.7778 c 0.0568,-1.5278 0.54215,-4.4255 1.0784,-6.4395 z m 2.0682,-48.717 c 8.777,-2.793 18.355,-4.3785 29.323,-4.8539 l 12.073,-0.52331 1.6367,5.3782 c 2.2751,7.4759 3.041,12.454 2.3437,15.232 -0.55234,2.2007 -1.2099,2.41 -9.3601,2.9802 -4.8213,0.3373 -9.9708,0.89633 -11.443,1.2423 -2.3745,0.55787 -2.9148,0.16345 -4.7772,-3.4871 -2.6509,-5.1962 -8.3781,-9.3713 -16.615,-12.112 -3.5369,-1.177 -6.4306,-2.2934 -6.4306,-2.4809 0,-0.1875 1.4625,-0.80631 3.25,-1.3751 z m -8.5,-69.113 c 1.8065,0.0179 17.082,9.4697 22.793,14.103 7.4443,6.0399 15.171,15.337 18.898,22.739 2.9475,5.8536 2.8563,6.9152 -0.44241,5.1497 -2.3642,-1.2653 -8.3906,-0.74869 -18.498,1.5856 -8.8363,2.0407 -8.9236,1.9942 -5.9103,-3.1476 2.2239,-3.7948 2.5794,-5.3518 2.1118,-9.25 -1.2972,-10.815 -8.8069,-23.825 -15.981,-27.687 -3.3977,-1.829 -4.8283,-3.511 -2.9707,-3.4926 z m 6,222.21 c 12.087,2.5315 15.322,2.8318 26.75,2.4825 7.15,-0.2185 13.788,-0.7389 14.75,-1.1564 4.861,-2.1088 -1.3982,10.736 -9.8545,20.223 -5.2241,5.8607 -15.679,14.134 -19.646,15.546 -2.2213,0.7908 -2.1985,0.5603 0.37558,-3.8025 5.5425,-9.3938 -3.3264,-23.119 -20.586,-31.859 -3.0468,-1.5428 -5.5397,-3.1445 -5.5397,-3.5594 0,-0.4149 6.1875,0.5415 13.75,2.1255 z m -21.89,-133.27 4.6951,-13.549 5.4992,2.1301 c 6.6026,2.5575 10.328,4.8004 14.781,8.8985 4.5606,4.1977 6.1647,7.6271 6.1647,13.18 l 0,4.7094 -2.9704,-5.9442 c -3.9096,-7.8239 -7.7203,-11.39 -12.916,-12.087 -4.1076,-0.55095 -4.1108,-0.54881 -6.3274,4.3302 -3.6416,8.0154 -3.0937,15.702 2.0065,28.152 2.3141,5.6488 4.2074,10.494 4.2074,10.767 0,0.9292 -9.7028,-4.4165 -12.901,-7.1078 -4.51,-3.7949 -7.1148,-9.4158 -7.016,-15.14 0.0506,-2.932 1.9038,-10.045 4.7778,-18.339 z m -4.2914,102.55 c 10.757,-1.8089 23.471,-6.6702 28.49,-10.894 l 2.8894,-2.4313 4.816,1.83 c 6.3237,2.4028 17.758,4.6619 27.87,5.5061 l 8.1344,0.6791 0.54701,3.3708 c 0.30086,1.8539 0.29532,5.8094 -0.0123,8.79 l -0.55931,5.4191 -9.1221,0.4655 c -21.535,1.0989 -46.753,-3.0272 -63.053,-10.317 l -3.9309,-1.7579 3.9309,-0.661 z m -7.3191,24.052 c 10.302,3.1323 30.302,21.298 27.04,24.56 -1.4453,1.4453 -7.7081,2.2223 -11.77,1.4603 -3.4234,-0.6422 -3.5628,-0.8264 -2.9795,-3.9359 0.43909,-2.3405 0.15897,-3.6381 -0.99148,-4.5929 -1.8044,-1.4975 -6.1628,-1.8021 -8.7994,-0.615 -1.5235,0.686 -1.75,0.2081 -1.75,-3.6933 0,-2.4647 -0.675,-6.3944 -1.5,-8.7327 -1.899,-5.3824 -1.9192,-5.2623 0.75,-4.4506 z m -8.8828,-60.134 c 1.2908,-2.8498 6.4818,-7.8995 7.2898,-7.0915 0.19342,0.1934 -0.41593,1.8872 -1.3541,3.764 -2.2041,4.4092 -2.7895,13.646 -1.0719,16.912 5.4174,10.302 31.307,-8.0831 37.317,-26.5 1.2317,-3.7748 2.6694,2.4554 2.1922,9.5 -0.53252,7.8622 -3.1139,13.298 -8.7198,18.363 -4.7366,4.2793 -6.3846,5.0281 -18.02,8.1881 -4.675,1.2696 -9.4604,2.6039 -10.634,2.9651 -1.8347,0.5645 -2.5315,-0.1553 -4.9654,-5.13 -3.3309,-6.808 -4.2331,-16.114 -2.0332,-20.971 z m -13.127,-56.334 c 1.1773,-2.4302 4.4313,-6.7052 7.2312,-9.5 5.5338,-5.5237 18.202,-14.241 19.219,-13.225 0.82036,0.82035 -1.2024,7.651 -4.4039,14.872 -2.2708,5.1216 -2.9238,5.7992 -6.163,6.3959 -6.62,1.2195 -11.579,3.4256 -14.869,6.6143 -2.7887,2.7029 -3.2466,2.8755 -3.2039,1.2075 0.0274,-1.0704 1.0131,-3.9346 2.1904,-6.3648 z m -1.9902,167.88 c 6.6855,-1.751 11.189,-5.3074 17.338,-13.691 3.1356,-4.2753 5.8374,-7.937 6.0039,-8.1372 0.1665,-0.2002 1.4566,0.5437 2.867,1.653 5.8814,4.6263 18.785,5.2782 26.725,1.3501 l 3.8787,-1.9191 1.5425,2.9829 c 1.6407,3.1729 1.1502,4.9522 -0.82162,2.9804 -1.9897,-1.9897 -5.5278,-1.3236 -7.7108,1.4516 -2.702,3.435 -2.6139,4.9589 0.45098,7.7994 l 2.5236,2.3387 -6.7736,1.5874 c -12.808,3.0016 -18.811,3.7575 -34.524,4.3472 -11.235,0.4217 -15.75,0.2727 -15.75,-0.5197 0,-0.611 1.9125,-1.6117 4.25,-2.2239 z m -4.8463,-144.61 c 8.4449,-11.217 18.366,-15.926 27.831,-13.211 l 4.2648,1.2231 -5.2721,0.7129 c -9.836,1.3299 -19.86,7.6835 -20.452,12.963 -0.24151,2.1554 0.66111,2.9277 7.224,6.1807 10.344,5.1274 15.059,5.9407 30.427,5.2483 l 13.073,-0.589 -3.4338,3.0379 c -7.086,6.2689 -18.211,9.4062 -27.306,7.7001 -1.8195,-0.3413 -8.9224,-3.9889 -15.784,-8.1056 -6.8618,-4.1168 -13.039,-7.4905 -13.726,-7.4971 -2.08,-0.02 -1.4524,-1.5451 3.1537,-7.663 z m -4.2037,20.851 c 1.8035,-1.8035 2.614,-1.5522 9.3243,2.8917 l 6.1786,4.0916 -1.2537,3.6584 c -1.0248,2.9904 -0.98901,5.1842 0.19592,12.016 0.79727,4.5968 1.2833,8.8567 1.0801,9.4662 -0.5133,1.54 -10.343,-12.538 -13.842,-19.824 -3.0791,-6.4116 -3.6198,-10.363 -1.683,-12.3 z m 1.1474,-138.66 c 2.9411,-2.7704 8.7696,-6.7867 12.952,-8.9252 6.2927,-3.2172 8.2986,-3.795 11.625,-3.3488 6.4861,0.86997 20.307,8.1266 25.646,13.465 5.5153,5.5153 10.243,14.871 11.061,21.887 0.50686,4.3502 0.28537,5.1494 -2.0234,7.302 -3.5379,3.2984 -11.819,4.0257 -17.132,1.5047 l -3.7995,-1.803 3.2733,-1.1021 c 4.0082,-1.3496 6.0497,-3.9727 6.0497,-7.7736 0,-4.0012 -1.3949,-6.206 -5.5513,-8.7748 -4.2912,-2.6521 -12.237,-2.3748 -15.457,0.5395 -1.9376,1.7535 -2.0167,1.7182 -3.0983,-1.3846 -3.4762,-9.9718 -19.893,-6.7337 -19.893,3.9238 0,2.6628 -0.92027,2.4673 -5.2722,-1.1198 -5.592,-4.6094 -5.2159,-7.9514 1.6195,-14.39 z m -7.88881,238.2 c 7.8123,-6.2335 14.481,-20.388 14.52,-30.821 0.0148,-3.9157 -0.68415,-6.9736 -2.3429,-10.25 -2.7035,-5.3401 -2.0838,-6.119 1.2649,-1.5896 1.2524,1.6939 6.0917,5.5407 10.754,8.5484 l 8.4769,5.4685 -0.62114,5.7016 c -1.837,16.862 -6.4593,26.807 -15.378,33.086 -3.4123,2.4022 -7.6628,3.7822 -6.662,2.1629 2.323,-3.7587 -5.2851,-10.734 -10.558,-9.6795 -1.6024,0.3205 -2.9134,0.4814 -2.9134,0.3577 2e-5,-0.1238 1.5564,-1.4668 3.4585,-2.9845 z m -20.459,-164.72 c 3.2905,-0.9488 32,-6.457 32,-6.1395 0,0.23634 -2.6459,2.8241 -5.8798,5.7506 -6.5061,5.8877 -11.558,13.151 -12.596,18.109 -0.70962,3.3897 -2.5241,5.464 -2.5241,2.8856 0,-0.82166 0.44705,-2.6697 0.99343,-4.1068 1.8403,-4.8404 -2.8248,-12.064 -9.786,-15.153 -1.4891,-0.6608 -2.4825,-1.2663 -2.2075,-1.3456 z m 0.64986,-54.239 c 6.4864,-0.53791 8.8041,-2.5904 7.9372,-7.0291 -0.2954,-1.5125 -0.0983,-2.75 0.43791,-2.75 0.53625,0 0.975,0.65934 0.975,1.4652 0,2.5015 6.0776,8.5363 11.41,11.33 4.291,2.2479 6.3719,2.6695 13.256,2.6858 6.6888,0.0158 8.6789,-0.35411 11,-2.0448 5.1383,-3.7428 5.2582,-3.7451 4.6651,-0.0901 -1.4958,9.2175 8.9308,17.492 24.32,19.301 2.9417,0.34574 5.3463,0.90417 5.3434,1.2409 -0.01,1.1316 -13.429,4.2973 -20.314,4.7919 -12.665,0.90996 -33.635,-3.2877 -46.259,-9.2599 -8.345,-3.9478 -18.422,-13.929 -18.422,-18.246 0,-0.50921 2.5424,-1.1367 5.6499,-1.3944 z m -12.9,-29.875 c 9.9492,-3.7866 54.25,-7.9808 54.25,-5.1362 0,0.42221 -2.8905,1.5258 -6.4233,2.4524 -12.275,3.2194 -23.498,10.123 -25.903,15.933 -0.43566,1.0524 -0.79339,0.97573 -1.6358,-0.35034 -4.9869,-7.85 -12.431,-12.288 -18.973,-11.312 -4.682,0.69832 -5.314,-0.0644 -1.3146,-1.5865 z m 2.3281,175.78 c 9.5108,-5.7221 13.922,-11.056 13.922,-16.832 0,-5.6403 1.6328,-4.6963 2.4216,1.4 1.5956,12.332 7.9899,27.543 12.269,29.185 0.87775,0.3368 1.3494,0.8589 1.0481,1.1602 -0.30131,0.3013 -3.6282,-1.1958 -7.3931,-3.327 -9.1795,-5.1961 -14.797,-6.6474 -23.358,-6.0349 -3.8431,0.275 -6.9715,0.2225 -6.952,-0.1165 0.0195,-0.3391 3.6387,-2.7844 8.0426,-5.434 z m -19.828,-62.25 c 1.2375,0.3664 8.775,0.9264 16.75,1.2445 11.9,0.4747 15.172,0.2956 18.25,-0.9985 2.0625,-0.8673 3.75,-1.4298 3.75,-1.25 0,0.1798 -0.69091,1.9804 -1.5354,4.0015 -0.84444,2.021 -1.8111,7.2509 -2.1482,11.622 -0.33707,4.3711 -0.89914,7.9475 -1.249,7.9475 -0.3499,0 -1.4498,-1.3773 -2.4441,-3.0606 -3.3644,-5.6955 -16.207,-13.425 -27.541,-16.576 -3.3451,-0.93 -6.082,-2.1196 -6.082,-2.6436 0,-0.524 1.0125,-0.6529 2.25,-0.2865 z m -0.98123,-60.924 c 2.2891,-3.9981 6.7062,-6.4916 5.3807,-3.0375 -0.99642,2.5966 0.98705,5.2539 4.8808,6.539 2.9547,0.97515 3.956,0.90132 6.0077,-0.44296 1.3541,-0.88724 2.4689,-1.9403 2.4773,-2.3401 0.008,-0.39982 0.4119,-1.3532 0.89661,-2.1187 0.72822,-1.15 1.384,-1.0338 3.7757,0.66926 6.4476,4.5911 28.557,9.4031 49.562,10.787 5.9125,0.38957 10.75,1.0843 10.75,1.5439 0,1.0111 -8.1776,3.3928 -16.845,4.9062 -17.679,3.0867 -53.027,2.669 -63.329,-0.74838 l -5.3252,-1.7663 -0.25828,-5 c -0.19208,-3.7184 0.3275,-6.0231 2.027,-8.9915 z m -28.0246,-12.5489 c 0.1375,-0.0278 2.275,-0.16005 4.75,-0.29382 5.5281,-0.29878 9.8319,-3.0091 11.636,-7.3279 3.9341,-9.4157 -2.1546,-19.314 -11.886,-19.324 -2.0625,-0.002 -3.75,-0.37571 -3.75,-0.83034 0,-1.3823 36.553,-10.954 37.648,-9.8584 0.30451,0.3045 -0.57261,2.0457 -1.9491,3.8693 -5.749,7.6162 -6.1631,17.425 -1.2273,29.066 0.61594,1.4526 0.20858,1.75 -2.3971,1.75 -9.0606,0 -13.706,5.404 -16.548,19.25 -0.31048,1.5125 -0.96553,2.75 -1.4557,2.75 -2.1003,0 -11.21,-8.3536 -13.057,-11.972 -1.7268,-3.3849 -2.605,-6.9082 -1.7642,-7.0784 z m -8.25,224.53 c 1.375,0.3882 4.75,1.3479 7.5,2.1329 15.22,4.3443 39.006,1.9853 58,-5.7521 7.6042,-3.0976 9.5606,-3.5189 7.7,-1.6583 -3.7984,3.7984 1.3902,11.221 10.381,14.851 l 4.9188,1.986 -26,-0.3924 c -20.665,-0.3119 -28.38,-0.8198 -37.597,-2.4755 -11.711,-2.1035 -21.729,-5.2302 -25.403,-7.9283 -1.9217,-1.4115 -1.9022,-1.4414 0.5,-0.7634 z m -8.9989,-26.978 c 2.9902,-20.906 36.013,-39.793 62.182,-35.563 7.2128,1.1657 17.817,4.8305 17.817,6.1575 0,0.4492 -1.1628,2.5243 -2.584,4.6112 -1.9616,2.8804 -2.455,4.5987 -2.0484,7.1336 0.68882,4.2949 2.2011,6.0541 7.1323,8.2973 4.854,2.208 9.4122,2.3449 14.017,0.4207 3.2656,-1.3645 5.1698,-4.2021 8.0908,-12.057 0.7164,-1.9265 0.75802,-1.9187 1.1324,0.2126 1.1371,6.4726 -9.4218,18.14 -21.869,24.165 -11.783,5.7034 -23.095,8.1183 -41.351,8.8273 l -14.979,0.5819 3.3395,-3.8035 c 2.9183,-3.3238 3.2719,-4.3077 2.8035,-7.7999 -1.0628,-7.9239 -10.652,-13.395 -18.056,-10.301 -6.7853,2.8351 -11.629,11.041 -11.629,19.701 0,4.9234 -1.1906,6.4537 -2.4641,3.1671 -1.387,-3.5798 -2.0894,-9.8726 -1.5348,-13.75 z m -26.8654,-205.75 c 8.2533,-5.8391 30.561,-17.392 31.592,-16.361 0.31077,0.31078 -1.2412,2.5246 -3.4489,4.9196 -5.1208,5.5554 -6.6679,10.247 -6.0241,18.267 0.65987,8.2206 3.639,14.164 11.097,22.136 10.822,11.568 28.588,19.775 48.572,22.436 9.3438,1.244 11.185,2.1768 6.2454,3.1646 -1.5573,0.31145 -4.2573,1.8982 -6,3.5262 -4.1432,3.8703 -4.4506,9.2714 -0.66862,11.749 3.3098,2.1687 3.1807,3.6089 -0.25,2.7888 -25.341,-6.0576 -42.56,-15.131 -61.261,-32.282 -10.576,-9.6988 -28.002,-30.607 -27.981,-33.572 0.004,-0.56512 3.6618,-3.6129 8.1282,-6.7729 z m -15.198,118.25 c 2.8288,-9.2419 12.839,-21.995 23.281,-29.66 l 4.9951,-3.6667 12.565,2.1798 c 22.592,3.9193 43.567,12.378 51.936,20.944 8.8999,9.1099 6.4026,16.909 -7.5145,23.468 -6.9506,3.2759 -9.8079,3.105 -3.331,-0.1992 2.2349,-1.1402 4.5285,-2.942 5.0969,-4.004 2.9983,-5.6024 -0.83811,-13.624 -7.6513,-15.998 -3.8927,-1.3563 -4.3865,-1.2986 -8.9674,1.0485 -2.8953,1.4835 -6.2491,4.3671 -8.3269,7.1596 l -3.479,4.6758 -3.021,-2.9129 c -7.9778,-7.6923 -21.378,-6.4084 -25.059,2.401 -3.0983,7.4153 3.1398,14.01 10.388,10.982 l 3.3638,-1.4055 -0.64887,2.7436 c -0.35689,1.509 -1.8735,4.5436 -3.3702,6.7436 -9.4189,13.845 -31.368,9.6363 -39.116,-7.5 -2.0801,-4.6007 -2.594,-12.254 -1.1414,-17 z m -22.631,-67 c 5.8285,-15.291 15.07,-30.379 23.478,-38.33 l 2.9926,-2.8299 2.6855,3.5208 c 9.0455,11.859 8.4923,29.117 -1.4252,44.461 -4.2493,6.5745 -6.0366,7.6861 -6.0366,3.7546 0,-1.3328 -1.1521,-3.7925 -2.5603,-5.466 -5.1001,-6.0612 -13.805,-4.7304 -19.378,2.9624 -4.0422,5.58 -3.9631,2.9649 0.24421,-8.0731 z m -5.2329,99.455 c 0.50967,-0.315 0.92668,0.089 0.92668,0.8974 0,3.3755 12.405,10.799 22.652,13.555 24.763,6.6611 48.036,-0.01 60.828,-17.431 l 4.6796,-6.3739 4.0841,2.9585 c 5.3766,3.8947 12.563,5.9388 20.879,5.9388 3.7177,0 7.0376,0.45 7.3775,1 0.3884,0.6284 -1.8571,1 -6.0435,1 -7.4917,0 -21.338,4.1174 -29.299,8.7122 -18.543,10.704 -27.164,22.943 -27.152,38.548 0.007,8.4559 1.1162,13.03 5.1306,21.151 1.6074,3.2516 2.7957,6.2924 2.6407,6.7574 -0.76646,2.2993 -26.288,-17.661 -39.405,-30.819 -11.42,-11.455 -22.123,-27.173 -25.653,-37.672 -1.4533,-4.3225 -2.1692,-7.8997 -1.6456,-8.2233 z m -7.5953,-54.955 c 0.75791,-3.85 2.2642,-9.475 3.3473,-12.5 3.4931,-9.7559 2.8031,-9.2704 7.7783,-5.4728 15.856,12.103 40.127,-1.8042 44.386,-25.434 0.6351,-3.5235 0.85495,-8.586 0.48855,-11.25 -0.3664,-2.664 -0.4275,-4.8437 -0.13578,-4.8437 0.29172,0 2.6679,3.1859 5.2804,7.0798 10.207,15.213 25.244,28.305 37.52,32.665 2.6712,0.94873 4.8568,2.1175 4.8568,2.5972 0,0.47979 -0.78723,0.57019 -1.7494,0.20096 -0.96217,-0.36922 -5.1247,-0.91586 -9.25,-1.2148 -17.045,-1.235 -40.95,5.9864 -57.963,17.51 -15.18,10.282 -26.529,27.456 -28.846,43.651 -0.38067,2.6613 -1.1421,4.8775 -1.6921,4.925 -0.55,0.048 -1.8532,-2.3886 -2.896,-5.4136 -2.4967,-7.2423 -3.1574,-32.181 -1.1259,-42.5 z m -80.523,3.8499 c 4.2414,-15.926 13.918,-33.935 24.957,-46.448 l 5.4112,-6.134 1.4218,2.7136 c 2.1288,4.063 1.8764,12.385 -0.51725,17.055 -3.2845,6.4067 -10.195,11.464 -15.664,11.464 -1.9809,0 -2.885,0.8211 -4.1291,3.75 -2.0152,4.7444 -4.9757,18.042 -4.1914,18.826 0.89777,0.8978 15.246,-3.2833 20.63,-6.0114 2.6148,-1.325 6.4568,-4.2938 8.5379,-6.5973 6.8384,-7.5693 7.0894,-8.7772 7.0894,-34.123 l 0,-22.656 4,-3.2093 c 5.2963,-4.2493 17.12,-12.227 21.5,-14.506 2.9969,-1.5594 26.513,-10.381 32.5,-12.192 1.3339,-0.40345 0.6146,0.75167 -2.1595,3.4682 -5.664,5.5463 -12.492,15.901 -22.255,33.751 -10.088,18.444 -10.829,19.514 -12.12,17.495 -1.9704,-3.0818 -4.9651,-12.179 -4.9651,-15.082 0,-6.7113 6.0562,-11.913 13.87,-11.913 2.4032,0 3.3787,-0.92514 6.4729,-6.1383 l 3.6433,-6.1383 -5.9346,0.53813 c -11.883,1.0775 -21.896,7.7372 -27.005,17.961 -6.4384,12.884 -2.9455,27.24 8.3401,34.278 1.457,0.9086 1.4635,1.3996 0.071,5.3725 -0.8429,2.4049 -2.0783,7.1237 -2.7453,10.486 -1.1734,5.9155 -1.3266,6.132 -4.7271,6.6817 -5.4086,0.8744 -9.8293,4.0052 -12.007,8.5035 -5.1013,10.538 0.75101,22.052 12.191,23.985 2.8591,0.483 3.9457,1.1991 4.2636,2.8098 0.23467,1.1889 1.2865,6.0868 2.3374,10.884 l 1.9108,8.7226 -3.7177,2.4603 c -5.4761,3.6239 -8.9637,11.228 -8.9627,19.541 0.002,15.571 11.463,27.874 28.916,31.039 3.46,0.6274 6.4719,0.9597 6.6933,0.7383 0.22135,-0.2214 -1.2429,-3.1746 -3.254,-6.5628 -3.331,-5.6121 -3.9575,-6.1604 -7.0384,-6.1604 -8.5403,0 -13.971,-5.5729 -13.073,-13.416 0.48596,-4.2445 4.5037,-14.584 5.6671,-14.584 0.78307,0 4.0069,5.4331 14.537,24.5 7.6583,13.866 16.854,27.11 20.936,30.152 2.016,1.5024 2.0214,1.5521 0.11519,1.0596 -5.4924,-1.4188 -27.932,-9.9006 -33.106,-12.514 -3.2416,-1.637 -10.272,-6.2045 -15.623,-10.15 l -9.7295,-7.1738 0.22951,-22.187 c 0.22026,-21.293 0.13675,-22.388 -2.0717,-27.187 -4.9374,-10.728 -13.04,-15.849 -31.593,-19.968 l -2.8942,-0.6425 0.63829,5.4309 c 0.83188,7.078 4.4332,18.676 5.9566,19.183 0.65638,0.2187 3.0572,0.874 5.3352,1.4563 5.6242,1.4377 11.929,7.854 13.753,13.997 1.3389,4.5085 0.8367,12.242 -0.9865,15.192 -1.8212,2.9468 -16.284,-16.167 -23.923,-31.617 -8.5005,-17.191 -10.628,-28.547 -7.53,-40.182 z"
     id="body" />
  <path fill="#777"
     d="m 577.77573,227.027 c 1.8848,-5.1907 3.8357,-7.1191 9.7961,-9.6832 6.1292,-2.6367 19.823,-2.965 26.414,-0.63328 26.581,9.4028 54.722,36.151 54.69,51.983 -0.0283,14.117 -25.369,39.227 -49.891,49.437 -14.675,6.1102 -33.274,3.9683 -39.204,-4.5152 -4.4515,-6.3674 -3.5621,-14.729 2.1219,-19.95 11.459,-10.523 33.711,-4.1872 33.626,9.5748 -0.0547,8.8563 -10.801,13.432 -16.996,7.2373 -3.2009,-3.2009 -3.1332,-6.0544 0.2319,-9.7797 2.5397,-2.8115 0.98849,-3.7628 -4.7361,-2.9043 -3.5353,0.5301 -4.7762,1.2965 -6.429,3.9709 -5.5541,8.9867 0.61995,15 15.452,15.051 6.7034,0.023 9.0535,-0.443 14.5,-2.8732 17.591,-7.849 32,-21.055 32,-29.327 0,-4.6283 -4.1491,-8.641 -11.085,-10.721 -5.4815,-1.6438 -20.927,-3.1013 -44.165,-4.1678 -7.0125,-0.3218 -12.75,-0.943 -12.75,-1.3804 0,-0.4375 6.6375,-1.0701 14.75,-1.406 41.311,-1.71 53.25,-5.069 53.25,-14.982 0,-8.7028 -16.056,-22.709 -34.468,-30.068 -5.8671,-2.3451 -8.0005,-2.711 -13.508,-2.3169 -13.473,0.96401 -19.083,7.0844 -14.013,15.288 2.0346,3.292 4.372,4.4432 9.072,4.4681 3.8241,0.0202 4.1392,-0.9332 1.3888,-4.2019 -3.1911,-3.7924 -3.1146,-5.2959 0.45096,-8.8614 6.2511,-6.2511 17,-1.7266 17.055,7.179 0.0693,11.222 -16.163,18.631 -28.519,13.018 -4.4131,-2.0046 -9.4506,-7.2946 -9.4723,-9.947 -0.008,-0.9203 -0.22387,-2.5733 -0.48079,-3.6733 -0.25692,-1.1 0.15644,-3.7173 0.91858,-5.8162 z m -43.174,26.368 c 0.6875,0.029 4.4,1.3333 8.25,2.899 l 7,2.8466 -7.8748,3.6011 c -4.3312,1.9805 -8.0437,3.601 -8.25,3.601 -0.20634,0 -0.37516,-2.925 -0.37516,-6.5 0,-4.5612 0.37284,-6.4844 1.25,-6.4477 z m -1.5178,22.198 c 0.21053,-2.3375 0.57339,-4.25 0.80635,-4.25 1.1385,0 13.461,6.5204 13.461,7.1228 0,0.7555 -11.573,4.8772 -13.694,4.8772 -0.71821,0 -1.2272,-0.7875 -1.1311,-1.75 0.0961,-0.9625 0.34696,-3.6625 0.5575,-6 z m 5.3457,-40.211 c 6.7989,3.4321 6.7926,3.5602 -0.43014,8.7472 -5.2267,3.7535 -5.6477,3.315 -5.6477,-5.8827 l 0,-5.9326 6.0779,3.0681 z m -6.4562,75.672 c 0.39144,-0.3914 1.5178,-0.7117 2.5029,-0.7117 3.0278,0 9.6435,-7.2798 12.858,-14.149 7.856,-16.788 8.066,-40.956 0.48573,-55.914 -2.5666,-5.065 -10.273,-13.743 -13.96,-15.719 -1.0954,-0.58725 -1.7033,-1.3561 -1.3508,-1.7086 2.1188,-2.1188 31.864,-5.2904 38.298,-4.0835 l 3.7367,0.70102 -4.3459,2.7749 c -10.263,6.5529 -14.395,13.836 -13.654,24.069 0.61346,8.481 5.9452,15.544 16.264,21.544 1.5083,0.8771 0.98185,1.5402 -3.8828,4.8906 -20.527,14.138 -20.73,38.668 -0.37703,45.698 l 5.304,1.8319 -4.5,0.024 c -6.9917,0.038 -21.918,-1.8552 -28.01,-3.5526 -5.8238,-1.6227 -10.561,-4.5024 -9.3689,-5.6948 z m 0.10685,-18.962 c 0.21574,-2.0625 0.59702,-3.75 0.84728,-3.75 1.4161,0 11.363,7.4443 10.709,8.0149 -0.43181,0.3767 -3.3726,2.1356 -6.5351,3.9085 l -5.75,3.2234 0.1681,-3.8234 c 0.0925,-2.1029 0.34462,-5.5109 0.56037,-7.5734 z"
     id="head" />
  <g
     id="layer1">
    <path fill="#777"
       id="lleg"
       d="m 3.7346,179.2 c 8.9514,-25.36 42.744,-58.47 86.465,-84.721 39.58,-23.764 77.96,-25.611 94.49,-4.548 5.427,6.9146 7.6424,13.04 8.2911,22.925 0.55841,8.5083 -0.0372,11.199 -5.2032,23.5 -2.4735,5.8901 -2.63,6.9692 -1.6678,11.5 0.58403,2.75 1.3403,5.7005 1.6805,6.5567 0.48704,1.2255 -0.99434,2.0516 -6.9636,3.8831 -8.3424,2.5597 -20.982,8.6712 -41.262,19.95 -7.3034,4.062 -13.522,7.1423 -13.819,6.845 -0.29724,-0.29724 0.007,-1.4163 0.67514,-2.4869 2.0871,-3.3419 0.18832,-6.9422 -8.4917,-16.101 -7.3992,-7.8075 -8.5166,-9.4811 -9.6187,-14.405 -2.1466,-9.5922 1.3118,-18.987 9.9714,-27.087 6.4854,-6.0664 12.71,-8.825 21.299,-9.4395 8.5412,-0.61111 14.308,1.4326 19.143,6.7836 5.772,6.3889 6.1586,15.951 0.943,23.323 -4.1472,5.8617 -7.4872,7.9453 -13.531,8.441 -7.1045,0.58271 -10.791,-2.0694 -10.791,-7.7626 0,-7.1037 7.6469,-10.444 12.591,-5.5 1.375,1.375 2.8598,2.5 3.2996,2.5 1.7848,0 4.3107,-4.0808 4.8044,-7.7621 0.45139,-3.3654 0.0802,-4.4245 -2.6347,-7.5166 -5.5778,-6.3527 -14.238,-7.2702 -23.755,-2.5168 -9.3837,4.6865 -17.296,16.696 -15.901,24.134 1.6511,8.801 12.082,16.661 22.111,16.661 11.648,0 26.364,-6.9086 35.484,-16.658 7.1093,-7.5998 9.4604,-11.907 12.072,-22.117 3.239,-12.664 0.29198,-23.215 -8.6936,-31.124 -13.126,-11.554 -41.239,-11.439 -65.817,0.2678 -14.492,6.9031 -24.134,15.807 -26.536,24.506 -1.1352,4.1112 -0.13936,5.897 13.532,24.267 4.0941,5.5011 7.4438,10.42 7.4438,10.931 0,0.51076 -2.1679,0.92865 -4.8176,0.92865 -2.6497,0 -8.1622,0.9289 -12.25,2.0642 -11.226,3.118 -16.21,3.5112 -17.948,1.4164 -4.8166,-5.8036 2.4469,-18.844 9.5088,-17.072 3.3256,0.83467 3.1652,1.9044 -0.49271,3.2851 -3.5372,1.3351 -3.9129,3.9733 -1.0605,7.4453 l 1.9395,2.3608 3.7992,-2 c 6.775,-3.5666 7.9331,-10.329 3.018,-17.623 -3.6827,-5.4648 -9.1146,-8.0195 -16.196,-7.6173 -7.145,0.40579 -12.091,3.2557 -15.933,9.1816 -4.4775,6.9053 -3.1438,15.051 3.6346,22.199 l 2.9778,3.1402 -4.6631,3.2083 c -8.3719,5.76 -34.462,16.399 -36.129,14.732 -0.72718,-0.72719 1.3337,-4.6379 3.9872,-7.5661 3.4034,-3.7556 7.1019,-5.155 13.625,-5.155 3.6129,0 7.3497,-0.64658 9.1665,-1.5861 2.6856,-1.3888 3.0022,-1.9867 2.5446,-4.8065 -1.6909,-10.42 -6.2188,-13.85 -13.8,-10.456 -5.9116,2.6467 -19.072,16.419 -25.911,27.116 -7.5332,11.783 -8.8735,11.66 -4.6083,-0.42363 z" />
    <path fill="#777"
       id="rleg"
       d="m 2.1302,349.49 c 0.54844,0.2026 3.7892,4.5529 7.2016,9.6673 13.375,20.046 28.823,31.486 34.318,25.414 2.1811,-2.4101 4.6931,-8.5976 4.6931,-11.56 0,-3.2626 -4.5548,-5.0591 -12.961,-5.1122 -5.1514,-0.033 -7.2136,-0.5224 -9.7184,-2.3091 -3.3728,-2.4057 -7.7106,-8.5881 -7.1532,-10.195 0.82529,-2.3788 31.392,10.135 37.587,15.388 l 3.2539,2.7591 -3.9798,4.5213 c -4.265,4.8453 -5.6272,9.214 -4.6844,15.023 1.2048,7.4245 10.877,15.271 18.825,15.271 14.633,0 24.936,-18.781 13.885,-25.309 -3.6629,-2.1638 -5.3435,-2.1324 -7.3983,0.1381 -2.4535,2.7111 -2.0204,4.9785 1.3414,7.0229 3.2747,1.9915 3.0069,3.1484 -0.72882,3.1484 -3.8467,0 -6.3042,-1.8675 -8.3306,-6.3307 -2.4655,-5.4301 -2.4109,-7.0068 0.35381,-10.221 l 2.2908,-2.6632 12.893,3.2084 c 7.9593,1.9807 14.162,3.0025 16.209,2.6703 2.2913,-0.3718 3.3163,-0.1471 3.3163,0.7271 0,0.6959 -3.8624,6.4051 -8.5832,12.687 -12.595,16.761 -13.843,19.1 -12.448,23.328 2.7757,8.4106 11.353,16.271 25.561,23.423 12.94,6.5143 22.535,8.673 38.47,8.6551 16.419,-0.019 22.556,-1.9459 30.047,-9.4364 16.809,-16.808 6.5294,-49.861 -19.456,-62.562 -10.717,-5.2381 -18.757,-6.9909 -25.325,-5.521 -10.589,2.3696 -19.047,12.143 -17.771,20.535 1.7827,11.723 14.865,22.746 27.028,22.774 7.9243,0.018 15.477,-5.2325 15.477,-10.76 0,-6.088 -5.0092,-12.686 -7.1119,-9.3677 -0.47163,0.7443 -0.86441,1.6468 -0.87283,2.0055 -0.008,0.3587 -1.3254,1.1089 -2.9267,1.6671 -2.2565,0.7866 -3.6624,0.6399 -6.25,-0.6522 -2.877,-1.4366 -3.3805,-2.2424 -3.6417,-5.8286 -0.2337,-3.2079 0.18319,-4.6146 1.8192,-6.1389 3.9917,-3.7188 10.735,-3.5425 16.857,0.4406 7.841,5.1018 11.345,16.884 7.4582,25.075 -1.9603,4.1311 -8.0352,8.8164 -13.588,10.48 -4.8802,1.4621 -15.817,-0.1724 -21.893,-3.2718 -12.878,-6.5697 -21.05,-22.039 -17.874,-33.834 0.82894,-3.0785 3.2433,-6.5074 8.6608,-12.3 9.0175,-9.6424 11.218,-13.617 9.5573,-17.263 -0.85416,-1.8747 -0.85839,-2.5265 -0.0164,-2.5265 0.6241,0 7.927,3.7712 16.229,8.3804 20.679,11.482 27.716,14.883 37.411,18.083 6.8404,2.2579 8.1899,3.0375 7.6017,4.3909 -0.3934,0.9051 -1.1803,3.7486 -1.7487,6.319 -0.85858,3.8826 -0.72519,5.4054 0.78839,9 4.6829,11.121 6.4908,17.605 6.504,23.327 0.056,24.071 -17.819,40.404 -44.305,40.483 -11.926,0.035 -33.758,-5.9176 -47.758,-13.022 -7.3455,-3.7276 -24.763,-14.882 -36.399,-23.31 -20.469,-14.826 -38.262,-31.588 -49.452,-46.586 -4.553,-6.1023 -11.481,-19.198 -12.466,-23.564 -0.37228,-1.65 -0.92772,-3.8407 -1.2343,-4.8683 -0.3084,-1.0337 -0.11196,-1.7038 0.4397,-1.5 z" />
    <path fill="#777"
       d="m 363.22977,45.845 c 4.1425,-10.854 8.5291,-20.016 10.026,-20.941 0.96469,-0.59621 6.8852,6.1185 9.0188,10.229 1.8486,3.561 0.35191,6.2065 -4.7724,8.4356 -5.921,2.5756 -8.1548,4.5475 -8.1355,7.1817 0.0262,3.5883 1.6006,4.8522 6.6281,5.3207 6.3678,0.59339 10.917,-2.3349 14.336,-9.2271 3.7614,-7.5834 4.0218,-16.945 0.66098,-23.757 -1.4863,-3.0123 -4.0296,-6.2146 -5.9797,-7.5291 l -3.3933,-2.2873 2.8825,-3.0857 c 1.5854,-1.6971 3.6472,-4.3804 4.582,-5.9627 1.6928,-2.8656 1.7389,-2.8769 11.734,-2.8736 5.8631,0.002 14.191,0.81558 20.034,1.9573 5.5,1.0747 17.2,2.6991 26,3.6099 18.181,1.8817 30.087,4.6452 44.805,10.4 26.261,10.268 44.222,25.226 58.165,48.442 13.685,22.786 17.787,43.622 10.73,54.505 -2.9879,4.608 -9.7536,8.5438 -12.812,7.4528 -3.2021,-1.1424 -5.389,-3.5718 -5.389,-5.9864 0,-1.8621 0.80719,-2.5238 4.1896,-3.4346 2.3043,-0.62048 5.6793,-2.6178 7.5,-4.4386 8.5894,-8.5894 -0.31407,-21.43 -12.151,-17.523 -2.5202,0.83173 -5.1955,3.1958 -8.9697,7.926 -6.4775,8.1183 -11.587,12.452 -26.069,22.111 -13.486,8.995 -19.96,15.497 -24.4,24.508 l -3.4003,6.9002 -1.5478,-2.4664 c -9.6048,-15.305 -39.293,-29.026 -76.902,-35.539 -5.6375,-0.97642 -10.25,-2.0819 -10.25,-2.4566 0,-0.37469 1.4167,-1.0876 3.1482,-1.5842 5.3773,-1.5422 6.9315,-4.8269 7.8777,-16.649 0.6565,-8.2021 1.5254,-12.172 3.9156,-17.889 2.7436,-6.5629 4.247,-8.4752 14.065,-17.891 l 10.993,-10.543 0,-5.0112 c 0,-3.8688 -0.69559,-6.108 -3.0512,-9.8224 -1.6782,-2.6462 -2.8224,-5.0401 -2.5427,-5.3197 0.78279,-0.78279 6.7662,3.0154 22.594,14.343 29.838,21.354 32.185,23.345 35.75,30.335 7.0387,13.801 1.9743,27.834 -12.341,34.197 -11.834,5.26 -22.684,4.4792 -29.784,-2.1432 -3.4753,-3.2417 -4.0797,-4.4057 -4.0797,-7.8565 0,-7.5674 8.4168,-13.05 15.518,-10.108 4.0842,1.6917 6.2685,5.9694 4.894,9.5844 -1.8431,4.8478 2.7708,5.8277 10.072,2.1392 15.224,-7.6908 10.386,-27.04 -8.3483,-33.391 -6.8504,-2.3224 -21.289,-2.2674 -28.182,0.10737 -7.1379,2.4592 -14.097,7.1465 -16.584,11.169 -3.0774,4.9793 -2.9072,14.555 0.38419,21.611 5.0253,10.774 13.551,17.234 30.199,22.88 6.0031,2.0358 8.9227,2.3737 20.5,2.3731 16.308,-8.7e-4 23.246,-1.8355 36.073,-9.5399 11.209,-6.7321 14.139,-9.7506 16.73,-17.235 8.9302,-25.791 1.132,-48.487 -22.457,-65.361 -23.222,-16.611 -59.912,-22.167 -80.973,-12.261 -13.309,6.2597 -17.891,15.291 -21.446,42.268 -1.3035,9.8938 -3.3162,13.253 -7.2291,12.064 -6.9909,-2.1235 -26.726,-17.107 -26.668,-20.247 0.0171,-0.92806 1.7486,-6.1874 3.8478,-11.687 z m -23.58347,1.1401 c 1.3693,1.3673 4.1088,-1.0619 6.4532,-5.7221 2.0963,-4.167 6.0739,-25.419 4.9651,-26.527 -0.25775,-0.25775 -1.9868,0.17814 -3.8424,0.96863 -1.8556,0.7905 -4.6552,1.9451 -6.2214,2.5659 l -2.8476,1.1286 0.34756,13.395 c 0.19116,7.3672 0.70664,13.753 1.1455,14.192 z m -21.733,-15.93 c 3.6487,7.5859 10.92,16.297 13.603,16.297 3.8853,0 4.6652,-7.8538 1.9862,-20 l -1.6543,-7.5 -7.0984,-0.63449 c -3.9041,-0.34897 -8.1332,-0.96292 -9.3979,-1.3643 -2.1552,-0.68402 -2.2584,-0.52438 -1.6447,2.5438 0.3601,1.8005 2.253,6.5965 4.2064,10.658 z m -9.8486,-20.547 c 5.4642,-1.1654 6.674,-0.7547 5.306,1.8014 -1.1626,2.1724 0.75141,2.8748 10.831,3.9747 l 6.354,0.69334 -0.62712,-4.7275 -0.62712,-4.7275 3.6152,-1.1931 c 4.4062,-1.4542 5.2612,-0.72262 5.6391,4.8246 0.27386,4.0201 0.44696,4.2475 2.792,3.6686 5.5372,-1.367 10.367,-4.9057 11.221,-8.2205 0.80457,-3.1258 1.029,-3.25 5.8737,-3.25 2.7704,0 5.9298,0.47774 7.0209,1.0616 1.9144,1.0245 1.8777,1.1824 -1.047,4.5135 -4.4844,5.1074 -5.743,8.0573 -9.5682,22.425 -3.475,13.053 -4.8381,16.484 -8.264,20.805 -1.8222,2.2982 -1.8558,2.301 -11.282,0.95575 l -9.4542,-1.3493 -7.7701,-11.456 c -8.2369,-12.144 -14.73,-24.05 -14.73,-27.009 0,-1.3184 1.2322,-2.0475 4.7168,-2.7907 z m -67.9598,32.722 c 8.4075,-7.9238 15.717,-12.805 27.542,-18.395 8.506,-4.0205 22.03,-8.4761 25.728,-8.4761 0.88455,0 2.5756,2.0752 3.8705,4.75 2.8684,5.9247 9.3725,15.114 15.599,22.039 5.0994,5.6716 5.5857,7.8294 0.87558,3.8854 -6.3027,-5.2776 -18.892,-12.731 -26.667,-15.789 -6.5848,-2.5892 -9.723,-3.2433 -15.864,-3.3067 -7.1249,-0.0735 -7.9224,0.13603 -11.5,3.0216 -5.1109,4.1224 -5.6408,7.7517 -1.35,9.2475 6.9555,2.4247 11.942,-1.5612 6.7559,-5.4003 -2.1928,-1.6232 -2.1354,-1.6515 2.2565,-1.1092 2.4786,0.30602 8.5536,2.2675 13.5,4.3589 l 8.9935,3.8025 -13.5,0.59545 c -13.872,0.61186 -25.818,2.8911 -35.824,6.8352 -9.4556,3.727 -9.5372,2.5371 -0.41574,-6.0596 z"
       id="larm" />
    <path fill="#777"
       d="m 364.10098,472.245 c 8.4287,-8.0308 19.372,-14.899 23.738,-14.899 3.0155,0 4.2631,3.2067 5.9652,15.332 2.078,14.803 3.2734,19.376 6.79,25.974 6.1436,11.527 16.378,16.628 35.006,17.45 14.044,0.6196 23.519,-0.7129 36.965,-5.1983 17.459,-5.8241 35.073,-18.66 42.13,-30.703 8.5067,-14.516 9.3108,-30.337 2.4709,-48.619 -1.5605,-4.1708 -3.0793,-6.1029 -7.1485,-9.0939 -18.22,-13.392 -37.363,-18.436 -56.315,-14.838 -9.5506,1.8131 -22.149,6.6374 -27.375,10.482 -14.56,10.713 -18.999,30.739 -8.8218,39.801 13.666,12.17 39.429,12.648 52.692,0.9772 5.7126,-5.0264 7.9692,-15.508 4.4334,-20.593 -4.0209,-5.7826 -12.486,-10.004 -16.139,-8.0482 -1.7514,0.9373 -1.9218,1.5231 -1.0843,3.726 3.2139,8.4532 -9.7251,14.199 -16.894,7.502 -6.0418,-5.6439 -4.8694,-12.671 2.9804,-17.866 3.7887,-2.5073 5.0693,-2.7854 12.784,-2.7766 9.9833,0.011 15.247,1.9471 22.102,8.1275 8.7313,7.8728 10.46,18.574 4.7213,29.226 -2.8875,5.3594 -4.8117,7.1966 -17.25,16.47 -19.656,14.654 -38.536,27.667 -40.141,27.667 -1.5904,0 -1.8104,-1.6028 -0.34442,-2.5088 2.2226,-1.3737 4.9857,-8.6165 4.9857,-13.069 0,-4.4724 -0.26697,-4.9012 -6.7165,-10.79 -12.59,-11.494 -15.035,-14.486 -18.36,-22.452 -2.4873,-5.9604 -3.3578,-9.8073 -3.8876,-17.18 -0.82844,-11.529 -2.5492,-15.354 -7.6677,-17.044 -4.5871,-1.5139 -3.3573,-2.2353 6.6318,-3.8904 34.427,-5.7042 66.657,-19.884 75.472,-33.202 1.4062,-2.125 2.8879,-3.841 3.2926,-3.8134 0.40469,0.028 2.0018,2.7225 3.5491,5.9887 3.9448,8.3269 10.765,15.329 22.818,23.426 5.7025,3.8309 12.618,8.7186 15.368,10.861 4.7891,3.7317 14.5,14.312 14.5,15.798 0,1.8056 7.0286,4.8733 11.118,4.8526 6.7338,-0.034 10.882,-4.333 10.882,-11.277 0,-4.7296 -3.0739,-8.2166 -9.2749,-10.522 -4.1988,-1.5607 -5.2854,-2.4375 -5.5322,-4.4639 -0.58802,-4.8286 6.004,-7.216 11.738,-4.251 13.117,6.783 12.964,28.123 -0.38072,53.209 -16.263,30.571 -37.571,48.071 -72.282,59.364 -10.446,3.3983 -16.103,4.5015 -35.603,6.9429 -12.751,1.5964 -25.205,3.3796 -27.675,3.9627 -2.4697,0.5831 -9.4645,1.3488 -15.544,1.7015 l -11.054,0.6413 -3.8457,-5.3924 c -2.1151,-2.9659 -4.4926,-5.7743 -5.2834,-6.241 -1.1191,-0.6605 -0.62256,-1.4023 2.2411,-3.3482 10.184,-6.92 11.389,-25.462 2.325,-35.76 -4.2455,-4.8232 -8.1147,-6.2144 -13.253,-4.7651 -3.7115,1.0468 -5.0554,3.1776 -4.1868,6.6382 0.51865,2.0665 1.9554,3.2883 5.9373,5.0493 6.4407,2.8484 7.9608,4.5394 7.1138,7.9138 -0.64723,2.5788 -7.9417,11.62 -9.375,11.62 -1.5978,0 -14.066,-29.035 -14.066,-32.756 0,-0.4505 2.1375,-2.8557 4.75,-5.3448 z m -19.25168,46.272 c 3.8858,1.5269 6.4926,2.1069 6.4817,1.442 -0.0101,-0.6117 -0.6648,-5.6589 -1.455,-11.216 -1.4776,-10.392 -2.5627,-13.883 -5.7961,-18.646 -4.0537,-5.9713 -5.5829,-2.2455 -5.6673,13.808 l -0.0634,12.058 6.5,2.5542 z m -29.165,-1.5394 c 1.2844,-0.3224 5.4942,-0.8797 9.355,-1.2385 l 7.0197,-0.6525 1.6516,-8.6198 c 2.1192,-11.06 2.073,-14.362 -0.2413,-17.22 l -1.8796,-2.3213 -3.3704,2.5934 c -3.8091,2.9309 -8.8997,10.923 -12.437,19.525 -3.0659,7.4559 -3.081,8.6816 -0.0981,7.9329 z m -9.418,-2.8325 c 3.6177,-7.1327 16.494,-26.956 18.958,-29.186 2.7056,-2.4485 18.436,-4.4294 20.641,-2.5993 2.9172,2.4211 6.1752,10.239 8.8859,21.321 2.8566,11.679 5.831,18.489 10.065,23.044 3.5381,3.8062 2.2949,4.7936 -5.5686,4.423 -6.1958,-0.2921 -6.4087,-0.3911 -6.7223,-3.129 -0.27155,-2.3705 -1.322,-3.3012 -6.5,-5.7592 l -6.1761,-2.9318 -1.0759,4.7592 c -1.0278,4.5463 -1.2228,4.7521 -4.3593,4.5999 -4.5517,-0.2209 -5.4234,-1.3821 -4.2441,-5.6534 0.53949,-1.9538 0.72554,-3.8078 0.41345,-4.1199 -0.89479,-0.8948 -5.4034,-0.6673 -11.654,0.5881 -5.2602,1.0564 -5.7152,1.3565 -5.3054,3.5 0.51371,2.6873 -0.66179,2.9201 -6.5245,1.2919 -4.5841,-1.2731 -4.6886,-2.5469 -0.83275,-10.149 z m -71.1715,-30.285 c 14.691,5.9781 27.685,8.613 42.477,8.613 6.4753,0 11.773,0.1955 11.773,0.4345 0,0.239 -3.0375,1.8182 -6.75,3.5095 -8.7807,4.0001 -17.329,6.2655 -18.652,4.9428 -0.66388,-0.6639 -0.45143,-0.9979 0.6347,-0.9979 2.1607,0 3.4228,-3.97 1.6244,-5.1095 -1.866,-1.1824 -6.5861,-1.1059 -8.9228,0.1447 -3.9342,2.1055 -1.2786,7.9584 4.7547,10.479 10.915,4.5608 29.417,-1.3672 49.018,-15.705 2.864,-2.095 5.4677,-3.8091 5.7861,-3.8091 0.31832,0 -2.4441,3.7125 -6.1387,8.25 -7.7606,9.531 -14.161,19.129 -15.009,22.508 -0.68474,2.7282 -1.6772,2.6285 -14.846,-1.4915 -15.362,-4.8063 -30.674,-13.832 -41.25,-24.315 -6.233,-6.1784 -7.8178,-8.8031 -4.5,-7.453 z"
       id="rarm" />
  </g>
</svg>
